<?xml version="1.0" encoding="utf-8"?>
<!-- Generator: Adobe Illustrator 26.3.1, SVG Export Plug-In . SVG Version: 6.00 Build 0)  -->
<svg version="1.1" id="Layer_1" xmlns="http://www.w3.org/2000/svg" xmlns:xlink="http://www.w3.org/1999/xlink" x="0px" y="0px"
	 viewBox="0 0 768 768" style="enable-background:new 0 0 768 768;" xml:space="preserve">
<style type="text/css">
	.st0{fill:#0A3161;}
	.st1{fill:#B31942;stroke:#FFFFFF;stroke-width:5;stroke-miterlimit:10;}
	.st2{fill:#003399;}
	.st3{fill:#FFCC00;}
</style>
<g>
	<circle class="st0" cx="224.8" cy="224.8" r="224.8"/>
	<path class="st1" d="M258.8,296c0-10.8-2.7-19.3-8-25.4c-5.3-6.1-14.7-11.9-28.1-17.4c-13.4-5.5-25.7-11-37.1-16.6
		c-11.3-5.6-21.1-12.1-29.3-19.5c-8.2-7.4-14.5-15.9-18.8-25.6c-4.4-9.7-6.6-21.4-6.6-35.2c0-23.1,7.8-42.1,23.4-57.1
		s36.3-23.7,62.3-26.1V29.8h32.6v44c25,3.7,44.6,14,58.9,30.8c14.3,16.9,21.4,38.3,21.4,64.2h-69.2c0-14.2-2.7-25.1-8.2-32.8
		c-5.5-7.6-13.2-11.5-23.4-11.5c-9,0-16,2.8-21,8.5c-5,5.7-7.5,13.5-7.5,23.5c0,10.1,2.9,18.1,8.6,24.1c5.7,5.9,15,11.6,27.7,17
		c12.7,5.4,24.7,11,36,16.8c11.3,5.8,21,12.4,29.2,19.8c8.2,7.4,14.6,16,19.3,25.8c4.6,9.8,7,21.6,7,35.4c0,23.4-7.4,42.4-22.2,57.2
		c-14.8,14.8-35,23.4-60.5,25.8v41.2h-32.6v-41.4c-29.8-3.1-52.6-13.3-68.5-30.6c-15.9-17.3-23.9-40.1-23.9-68.3h69
		c0,15.6,3.4,27.4,10.3,35.5c6.9,8.1,16.7,12.2,29.4,12.2c9.3,0,16.6-2.8,21.9-8.3C256.1,313.3,258.8,305.7,258.8,296z"/>
</g>
<g>
	<circle class="st2" cx="543.2" cy="543.2" r="224.8"/>
	<path class="st3" d="M589.9,588.3H526c0.7,18,5.6,31.2,14.6,39.8c9.1,8.6,24.1,12.9,45,12.9c13.5,0,25.5-2,36.1-6.1l8.8,55.3
		c-18.2,4.1-36.1,6.2-53.9,6.2c-36.9,0-66.3-9.6-88.2-28.7c-21.9-19.1-33.4-45.5-34.5-79.3H420v-32.8h33.8v-24.8H420v-32.8h34.4
		c2.6-33.9,15.3-60.3,38.1-79.3c22.8-19,52.9-28.5,90.3-28.5c14.5,0,30.3,2.1,47.5,6.4l-8.8,55.3c-10.7-4.2-22.1-6.4-34.2-6.4
		c-18.8,0-33.3,4.3-43.2,12.8c-10,8.5-15.8,21.8-17.6,39.6h63.3v32.8H526v24.8h63.9V588.3z"/>
</g>
<g>
	<path d="M322.2,706c-52.6,0-90.8-0.1-121.1-2.8c-36.8-3.3-59.7-10.6-76.7-24.5C101.3,660,95,632.8,92,611.3
		c-3.5-25.9-3.5-58.3-3.5-103.1V507h51v1.2c0,73,0,117.1,17.1,131C176,655,232.4,655,325.8,655h3.7v51h-3.7
		C324.6,706,323.4,706,322.2,706z"/>
	<g>
		<polygon points="114,427.8 159.6,539.4 114,512.9 68.4,539.4 		"/>
	</g>
</g>
<g>
	<path d="M445.8,62c52.6,0,90.8,0.1,121.1,2.8c36.8,3.3,59.7,10.6,76.7,24.5c23.1,18.8,29.4,45.9,32.3,67.5
		c3.5,25.9,3.5,58.3,3.5,103.1v1.2h-51v-1.2c0-73,0-117.1-17.1-131C592,113,535.6,113,442.2,113h-3.7V62h3.7
		C443.4,62,444.6,62,445.8,62z"/>
	<g>
		<polygon points="654,340.2 608.4,228.6 654,255.1 699.6,228.6 		"/>
	</g>
</g>
</svg>
